<svg width="17" height="16" viewBox="0 0 17 16" fill="none" xmlns="http://www.w3.org/2000/svg">
<g id="icon_coin" clip-path="url(#clip0)">
<path id="path2" d="M14.3235 2.34313C12.8125 0.832125 10.8035 0 8.66663 0C6.52975 0 4.52069 0.832125 3.00975 2.34313C1.49878 3.85413 0.666626 5.86312 0.666626 8C0.666626 10.1369 1.49878 12.1459 3.00975 13.6569C4.52075 15.1679 6.52975 16 8.66663 16C10.8035 16 12.8126 15.1679 14.3235 13.6569C15.8345 12.1459 16.6666 10.1369 16.6666 8C16.6666 5.86312 15.8345 3.85406 14.3235 2.34313ZM8.66663 15.0625C4.77225 15.0625 1.60413 11.8944 1.60413 8C1.60413 4.10563 4.77225 0.9375 8.66663 0.9375C12.561 0.9375 15.7291 4.10563 15.7291 8C15.7291 11.8944 12.561 15.0625 8.66663 15.0625Z" fill="#EA5DBB"/>
<path id="path6" d="M9.16885 7.53129H8.16467C7.59257 7.53129 7.12717 7.06589 7.12717 6.49382C7.12717 5.92173 7.5926 5.45632 8.16467 5.45632H10.173C10.4319 5.45632 10.6418 5.24645 10.6418 4.98757C10.6418 4.7287 10.4319 4.51882 10.173 4.51882H9.13551V3.48132C9.13551 3.22245 8.92563 3.01257 8.66676 3.01257C8.40788 3.01257 8.19801 3.22245 8.19801 3.48132V4.51882H8.1647C7.07567 4.51882 6.1897 5.40482 6.1897 6.49382C6.1897 7.58282 7.0757 8.46879 8.1647 8.46879H9.16888C9.74095 8.46879 10.2064 8.93423 10.2064 9.50629C10.2064 10.0784 9.74095 10.5438 9.16888 10.5438H7.16054C6.90167 10.5438 6.69179 10.7537 6.69179 11.0125C6.69179 11.2714 6.90167 11.4813 7.16054 11.4813H8.19801V12.5188C8.19801 12.7777 8.40788 12.9876 8.66676 12.9876C8.92563 12.9876 9.13551 12.7777 9.13551 12.5188V11.4813H9.16885C10.2579 11.4813 11.1438 10.5953 11.1438 9.50629C11.1438 8.41729 10.2579 7.53129 9.16885 7.53129Z" fill="#EA5DBB"/>
</g>
<defs>
<clipPath id="clip0">
<rect width="16" height="16" fill="white" transform="translate(0.666626)"/>
</clipPath>
</defs>
</svg>
